<svg id="Calque_1" data-name="Calque 1" xmlns="http://www.w3.org/2000/svg" viewBox="0 0 414.12 453"><defs><style>.cls-1,.cls-2{fill:none;stroke:#E8835A;stroke-miterlimit:10;}.cls-1{stroke-width:17px;}.cls-2{stroke-width:6px;}</style></defs><title>icone_trafic</title><rect class="cls-1" x="116.35" y="8.5" width="181.42" height="436" rx="12" ry="12"/><circle class="cls-2" cx="207.06" cy="99.18" r="52"/><circle class="cls-2" cx="207.06" cy="226.41" r="52"/><circle class="cls-2" cx="207.06" cy="353.64" r="52"/><path class="cls-1" d="M324.5,149.83c44.8,0,81.12-45.27,81.12-101.12H324.5Z"/><path class="cls-1" d="M324.5,277.06c44.8,0,81.12-45.27,81.12-101.12H324.5Z"/><path class="cls-1" d="M324.5,404.29c44.8,0,81.12-45.27,81.12-101.12H324.5Z"/><path class="cls-1" d="M89.62,149.83c-44.8,0-81.12-45.27-81.12-101.12H89.62Z"/><path class="cls-1" d="M89.62,277.06c-44.8,0-81.12-45.27-81.12-101.12H89.62Z"/><path class="cls-1" d="M89.62,404.29C44.82,404.29,8.5,359,8.5,303.17H89.62Z"/></svg>