<svg id="Calque_1" data-name="Calque 1" xmlns="http://www.w3.org/2000/svg" viewBox="0 0 512.96 474.56"><defs><style>.cls-1,.cls-2{fill:none;stroke:#E8835A;stroke-miterlimit:10;}.cls-1{stroke-width:17px;}.cls-2{stroke-width:7px;}</style></defs><title>icone_conduite</title><path class="cls-1" d="M474.4,466.06H38.56A30.15,30.15,0,0,1,8.5,436L108.69,38.56A30.15,30.15,0,0,1,138.75,8.5H374.21a30.15,30.15,0,0,1,30.06,30.06L504.46,436A30.15,30.15,0,0,1,474.4,466.06Z"/><polygon class="cls-2" points="297.39 456.81 215.57 456.81 220.58 345.3 292.38 345.3 297.39 456.81"/><polygon class="cls-2" points="292.38 284.14 220.58 284.14 225.59 172.63 287.38 172.63 292.38 284.14"/><polygon class="cls-2" points="287.38 116.47 225.59 116.47 230.6 4.95 282.37 4.95 287.38 116.47"/></svg>