<svg id="Calque_1" data-name="Calque 1" xmlns="http://www.w3.org/2000/svg" viewBox="0 0 563.02 563.03"><defs><style>.cls-1{fill:none;stroke:#fff;stroke-miterlimit:10;stroke-width:17px;}</style></defs><title>icone_preferences</title><path class="cls-1" d="M542.52,249.27l-64.7-8a199.31,199.31,0,0,0-6.17-23.08l52-39.26a12,12,0,0,0,4.39-16.4l-20.25-35.07a12,12,0,0,0-16.39-4.39l-60.07,25.45a200.17,200.17,0,0,0-16.86-16.86L440,71.6a12,12,0,0,0-4.4-16.4L400.48,35a12,12,0,0,0-16.39,4.39l-39.27,52a197.16,197.16,0,0,0-23.07-6.17l-8-64.71a12,12,0,0,0-12-12h-40.5a12,12,0,0,0-12,12l-8,64.71a197.17,197.17,0,0,0-23.07,6.18l-39.27-52A12,12,0,0,0,162.54,35L127.47,55.2a12,12,0,0,0-4.39,16.4l25.45,60.07a200.18,200.18,0,0,0-16.86,16.86L71.59,123.08a12,12,0,0,0-16.39,4.39L35,162.54a12,12,0,0,0,4.4,16.4l52,39.26a199.31,199.31,0,0,0-6.17,23.08l-64.71,8a12,12,0,0,0-12,12v40.49a12,12,0,0,0,12,12l64.71,8a199.69,199.69,0,0,0,6.17,23.07l-52,39.27A12,12,0,0,0,35,400.48L55.2,435.56A12,12,0,0,0,71.59,440l60.08-25.45a200.19,200.19,0,0,0,16.86,16.86l-25.45,60.07a12,12,0,0,0,4.39,16.4l35.07,20.24a12,12,0,0,0,16.39-4.39l39.27-52a197.17,197.17,0,0,0,23.07,6.18l8,64.71a12,12,0,0,0,12,12h40.5a12,12,0,0,0,12-12l8-64.71a199.13,199.13,0,0,0,23.07-6.17l39.27,52a12,12,0,0,0,16.39,4.39l35.07-20.24a12,12,0,0,0,4.4-16.4L414.5,431.36a200.18,200.18,0,0,0,16.86-16.86L491.43,440a12,12,0,0,0,16.39-4.39l20.25-35.08a12,12,0,0,0-4.39-16.39l-52-39.27a199.69,199.69,0,0,0,6.17-23.07l64.7-8a12,12,0,0,0,12-12V261.27A12,12,0,0,0,542.52,249.27Zm-261,128.17a95.93,95.93,0,1,1,95.93-95.93A95.92,95.92,0,0,1,281.51,377.44Z"/></svg>