<svg id="Calque_1" data-name="Calque 1" xmlns="http://www.w3.org/2000/svg" viewBox="0 0 461.78 588.26"><defs><style>.cls-1{fill:#E8835A;}</style></defs><title>icone_urgence</title><path class="cls-1" d="M447.08,424.85a73.49,73.49,0,0,0-14.65-6.71c-2.67-1-5.19-1.91-7.46-3-10.27-4.88-19.1-14.94-24.22-27.6-4-9.83-5.41-20-6.33-32.34-1.91-25.36-.73-51.49.41-76.75,1.16-25.5,2.36-51.88.47-78.11-4.11-57.1-24.59-99.59-62.59-129.91a159.93,159.93,0,0,0-56-28.47,46,46,0,0,0-91.65-.24q-3.2.93-6.36,2a163.21,163.21,0,0,0-49.64,26.71c-38,30.33-58.48,72.82-62.59,129.91C64.6,226.61,65.8,253,67,278.53c1.14,25.24,2.32,51.35.42,76.69-1,12.68-2.36,22.51-6.33,32.34-5.13,12.66-14,22.72-24.23,27.59-2.27,1.08-4.79,2-7.46,3a73.31,73.31,0,0,0-14.66,6.71A31.22,31.22,0,0,0,1.37,460.63a32.29,32.29,0,0,0,31.11,23.51H162a74.86,74.86,0,1,0,137.79,0H429.31a32.29,32.29,0,0,0,31.11-23.51A31.22,31.22,0,0,0,447.08,424.85ZM230.9,21a25.06,25.06,0,0,1,23.4,16.19A167.7,167.7,0,0,0,207.58,37,25,25,0,0,1,230.9,21Zm0,546.26a53.83,53.83,0,0,1-45.19-83.12h90.37a53.83,53.83,0,0,1-45.18,83.12ZM440.27,454.73a11.21,11.21,0,0,1-11,8.41H32.48a11.19,11.19,0,0,1-11-8.41A10.48,10.48,0,0,1,26,442.54a55.21,55.21,0,0,1,10.57-4.69c3-1.08,6-2.21,9.09-3.66l.13-.06a66.37,66.37,0,0,0,24.84-20.94,81.68,81.68,0,0,0,9.85-17.75c5-12.31,6.73-24.35,7.81-38.64,2-26.61.79-53.35-.39-79.22-1.13-24.92-2.29-50.69-.49-75.71C91.1,151,109,113.33,142.18,86.87a142.1,142.1,0,0,1,43.27-23.24c.86-.29,1.72-.57,2.59-.84A131.71,131.71,0,0,1,209,58a145.31,145.31,0,0,1,20.57-1.46,153.27,153.27,0,0,1,44.07,6.53,137.7,137.7,0,0,1,46,23.75c33.17,26.46,51.07,64.08,54.74,115,1.8,25,.63,50.75-.49,75.65-1.18,25.89-2.39,52.65-.38,79.28,1.06,14.25,2.8,26.28,7.8,38.64a81.83,81.83,0,0,0,9.84,17.75A66.4,66.4,0,0,0,416,434.13l.13.06c3.09,1.45,6.13,2.58,9.08,3.66a55.21,55.21,0,0,1,10.57,4.69A10.5,10.5,0,0,1,440.27,454.73Z"/><path class="cls-1" d="M230.89,350.72a8.5,8.5,0,0,1-8.5-8.5v-168a8.5,8.5,0,0,1,17,0v168A8.5,8.5,0,0,1,230.89,350.72Z"/><path class="cls-1" d="M314.89,266.72h-168a8.5,8.5,0,0,1,0-17h168a8.5,8.5,0,0,1,0,17Z"/></svg>