<svg id="Calque_1" data-name="Calque 1" xmlns="http://www.w3.org/2000/svg" viewBox="0 0 468.51 519.5"><defs><style>.cls-1{fill:none;stroke:#E8835A;stroke-miterlimit:10;stroke-width:17px;}.cls-2{fill:#fff;}</style></defs><title>icone_profil</title><circle class="cls-1" cx="238.26" cy="118.83" r="110.33"/><path class="cls-1" d="M460,511H8.5c0-38.49,10-73.36,25.43-104.27.41-.82.83-1.65,1.25-2.46s1-1.84,1.43-2.75c.1-.2.21-.41.32-.61l1.5-2.8.1-.18,1.38-2.5q.27-.5.57-1c.47-.85,1-1.69,1.44-2.53.59-1,1.18-2,1.77-3l1.53-2.55.61-1c.49-.82,1-1.62,1.5-2.42s1.18-1.87,1.77-2.8q1.92-3,3.92-6t3.9-5.66q1.18-1.69,2.4-3.36,1.71-2.35,3.44-4.67l.21-.27,2.06-2.7Q68,353.69,71,350q1.32-1.64,2.67-3.25c1.37-1.65,2.76-3.28,4.15-4.9s2.89-3.33,4.36-5c.73-.82,1.47-1.63,2.2-2.44s1.47-1.62,2.21-2.41,1.35-1.47,2-2.19q1.89-2,3.8-4l1.71-1.76c.88-.92,1.78-1.83,2.68-2.72.65-.66,1.3-1.31,2-2q4.64-4.63,9.3-9l1.73-1.62q4.95-4.58,9.85-8.84l1.74-1.51c4-3.48,8-6.8,11.9-10l3.47-2.77c12.08-9.57,23.38-17.61,33-24,18-12,40.85-18.57,64.52-18.57a124.56,124.56,0,0,1,34.4,4.79,108.67,108.67,0,0,1,30.13,13.78c5.86,3.9,12.35,8.41,19.24,13.5l1.63,1.2c9.29,6.91,19.31,14.87,29.55,23.82l2,1.76q3.06,2.69,6.14,5.53l2.1,1.93q4.05,3.77,8.11,7.74l2.23,2.2c.66.65,1.31,1.3,2,2,.9.89,1.79,1.8,2.68,2.72l1.71,1.76q1.45,1.5,2.91,3.05l1.54,1.64L382,332c.74.79,1.48,1.6,2.21,2.41s1.47,1.62,2.2,2.44q4.3,4.81,8.51,9.86c.74.89,1.48,1.78,2.21,2.68s1.48,1.81,2.21,2.73l2.17,2.74q2.14,2.75,4.27,5.56l2.1,2.84c.77,1,1.52,2.08,2.28,3.13.62.87,1.25,1.75,1.87,2.63s1.35,1.94,2,2.92q1.23,1.78,2.44,3.6c.52.78,1,1.57,1.55,2.36.66,1,1.31,2,2,3s1.29,2,1.92,3.05,1.26,2,1.88,3.08c.48.79,1,1.59,1.43,2.39l.89,1.52,1.35,2.35c.6,1,1.2,2.11,1.78,3.17s1,1.87,1.54,2.81l.36.68c.52,1,1,2,1.55,3s1,2,1.54,3l.13.26,0,.06C449.92,437.31,460,472.34,460,511Z"/><path class="cls-2" d="M31.52,430.32c-.42,1.05-.84,2.11-1.25,3.17l.24-.63C30.84,432,31.17,431.16,31.52,430.32Z"/></svg>